<svg width="732" height="234" viewBox="0 0 732 234" fill="none" xmlns="http://www.w3.org/2000/svg">
  <path
    d="M112.021 234C52.0483 234 3.08477 191.466 0.139659 138C0.0465805 136.316 5.65417e-05 134.611 5.66165e-05 132.899L5.80064e-05 101.102C5.77699e-05 106.511 0.472073 111.826 1.37622 117.001C2.65266 124.288 4.79335 131.315 7.69857 138C24.0264 175.587 64.58 202.203 112.021 202.203C154.429 202.203 188.807 171.175 188.807 132.906C188.807 127.437 188.102 122.115 186.773 117.007C178.815 86.3934 148.366 63.6086 112.021 63.6086C75.6757 63.6086 45.2273 86.3934 37.2695 117.007C35.9398 111.899 35.2351 106.578 35.2351 101.109C35.2351 62.833 69.6126 31.8114 112.021 31.8114C159.715 31.8114 200.441 58.708 216.603 96.6092C219.375 103.114 221.429 109.94 222.666 117.007C223.57 122.175 224.042 127.49 224.042 132.899C224.042 134.611 223.995 136.316 223.902 138C220.957 191.466 171.994 234 112.021 234Z"
    fill="#294C80" />
  <path
    d="M112.021 202.202C64.58 202.202 24.0264 175.586 7.69857 137.999C4.79334 131.314 2.65266 124.287 1.37622 117C0.472072 111.825 5.63795e-05 106.51 5.66159e-05 101.101C5.66816e-05 99.5968 0.0399432 98.0858 0.113079 96.6016C2.71914 42.8486 51.8222 -7.52797e-06 112.021 -4.89659e-06C172.22 -2.26522e-06 221.323 42.8486 223.929 96.6016C224.002 98.0925 224.042 99.5968 224.042 101.101L224.042 132.898C224.042 127.49 223.57 122.174 222.666 117C221.429 109.933 219.375 103.107 216.603 96.6016C200.441 58.7004 159.715 31.7972 112.021 31.7972C69.6126 31.7972 35.2351 62.8255 35.2351 101.094C35.2351 106.563 35.9398 111.885 37.2695 116.993C45.2273 147.607 75.6757 170.392 112.021 170.392C148.366 170.392 178.815 147.607 186.773 116.993C188.102 122.101 188.807 127.423 188.807 132.892C188.807 171.174 154.429 202.202 112.021 202.202Z"
    fill="#294C80" fill-opacity="0.8" />
  <path
    d="M349.529 142.134C342.913 142.134 337.117 140.685 332.139 137.787C327.224 134.888 323.35 130.887 320.514 125.784C317.742 120.617 316.356 114.663 316.356 107.921C316.356 101.18 317.742 95.2572 320.514 90.1536C323.35 84.9871 327.224 80.9546 332.139 78.0563C337.117 75.158 342.913 73.7089 349.529 73.7089C356.082 73.7089 361.847 75.158 366.824 78.0563C371.802 80.9546 375.677 84.9871 378.449 90.1536C381.221 95.2572 382.607 101.18 382.607 107.921C382.607 114.663 381.221 120.617 378.449 125.784C375.677 130.887 371.802 134.888 366.824 137.787C361.847 140.685 356.082 142.134 349.529 142.134ZM349.529 131.265C355.83 131.265 360.839 129.186 364.556 125.028C368.336 120.869 370.227 115.167 370.227 107.921C370.227 100.676 368.336 94.9736 364.556 90.8152C360.839 86.6567 355.83 84.5775 349.529 84.5775C343.228 84.5775 338.188 86.6567 334.407 90.8152C330.627 94.9736 328.737 100.676 328.737 107.921C328.737 115.167 330.627 120.869 334.407 125.028C338.188 129.186 343.228 131.265 349.529 131.265ZM404.63 141V74.843H447.348V84.5775H416.727V103.101H441.489V112.647H416.727V141H404.63ZM456.573 141L480.768 74.843H494.377L518.572 141H505.718L500.426 125.689H474.625L469.238 141H456.573ZM477.932 116.238H497.118L487.478 88.736L477.932 116.238ZM538.435 141V74.843H550.532V131.549H579.831V141H538.435ZM626.831 142.134C620.215 142.134 614.418 140.685 609.441 137.787C604.526 134.888 600.652 130.887 597.816 125.784C595.044 120.617 593.658 114.663 593.658 107.921C593.658 101.18 595.044 95.2572 597.816 90.1536C600.652 84.9871 604.526 80.9546 609.441 78.0563C614.418 75.158 620.215 73.7089 626.831 73.7089C633.384 73.7089 639.149 75.158 644.126 78.0563C649.104 80.9546 652.979 84.9871 655.751 90.1536C658.523 95.2572 659.909 101.18 659.909 107.921C659.909 114.663 658.523 120.617 655.751 125.784C652.979 130.887 649.104 134.888 644.126 137.787C639.149 140.685 633.384 142.134 626.831 142.134ZM626.831 131.265C633.131 131.265 638.141 129.186 641.858 125.028C645.638 120.869 647.528 115.167 647.528 107.921C647.528 100.676 645.638 94.9736 641.858 90.8152C638.141 86.6567 633.131 84.5775 626.831 84.5775C620.53 84.5775 615.49 86.6567 611.709 90.8152C607.929 94.9736 606.039 100.676 606.039 107.921C606.039 115.167 607.929 120.869 611.709 125.028C615.49 129.186 620.53 131.265 626.831 131.265ZM704.52 142.134C699.668 142.134 695.384 141.315 691.666 139.677C687.949 137.976 685.019 135.581 682.877 132.494C680.734 129.344 679.632 125.532 679.569 121.058H692.328C692.454 124.146 693.556 126.76 695.636 128.903C697.778 130.982 700.708 132.022 704.425 132.022C707.638 132.022 710.19 131.265 712.08 129.753C713.971 128.178 714.916 126.099 714.916 123.516C714.916 120.806 714.065 118.696 712.364 117.183C710.726 115.671 708.52 114.443 705.748 113.498C702.976 112.552 700.015 111.544 696.864 110.473C691.761 108.709 687.854 106.441 685.145 103.669C682.499 100.896 681.176 97.2104 681.176 92.6109C681.113 88.7045 682.026 85.3651 683.916 82.5928C685.87 79.7575 688.516 77.5838 691.855 76.0716C695.195 74.4965 699.038 73.7089 703.385 73.7089C707.796 73.7089 711.671 74.4965 715.01 76.0716C718.412 77.6468 721.059 79.852 722.949 82.6873C724.902 85.5226 725.942 88.8935 726.068 92.7999H713.12C713.057 90.4686 712.143 88.4209 710.379 86.6567C708.678 84.8296 706.284 83.916 703.196 83.916C700.55 83.8529 698.313 84.5145 696.486 85.9007C694.722 87.2238 693.84 89.177 693.84 91.7603C693.84 93.9655 694.533 95.7297 695.919 97.0528C697.305 98.313 699.195 99.3841 701.59 100.266C703.984 101.148 706.725 102.093 709.812 103.101C713.088 104.236 716.081 105.559 718.791 107.071C721.5 108.583 723.674 110.599 725.312 113.12C726.95 115.577 727.769 118.759 727.769 122.665C727.769 126.13 726.887 129.344 725.123 132.305C723.359 135.266 720.744 137.661 717.278 139.488C713.813 141.252 709.56 142.134 704.52 142.134Z"
    fill="#294C80" />
  <path
    d="M637.881 180.3C636.614 180.3 635.489 180.033 634.506 179.5C633.539 178.967 632.781 178.217 632.231 177.25C631.681 176.283 631.406 175.175 631.406 173.925C631.406 172.625 631.672 171.483 632.206 170.5C632.756 169.5 633.514 168.717 634.481 168.15C635.447 167.583 636.581 167.3 637.881 167.3C639.114 167.3 640.197 167.567 641.131 168.1C642.081 168.633 642.822 169.367 643.356 170.3C643.889 171.217 644.156 172.258 644.156 173.425C644.156 173.592 644.147 173.783 644.131 174C644.131 174.2 644.122 174.408 644.106 174.625H633.806V172.55H640.731C640.681 171.783 640.389 171.175 639.856 170.725C639.322 170.258 638.664 170.025 637.881 170.025C637.314 170.025 636.789 170.158 636.306 170.425C635.822 170.675 635.439 171.058 635.156 171.575C634.872 172.092 634.731 172.742 634.731 173.525V174.25C634.731 174.917 634.864 175.5 635.131 176C635.397 176.5 635.764 176.883 636.231 177.15C636.714 177.417 637.256 177.55 637.856 177.55C638.456 177.55 638.964 177.417 639.381 177.15C639.814 176.867 640.139 176.508 640.356 176.075H643.781C643.547 176.858 643.156 177.575 642.606 178.225C642.056 178.858 641.372 179.367 640.556 179.75C639.756 180.117 638.864 180.3 637.881 180.3ZM646.442 180L650.992 173.8L646.442 167.6H650.092L653.167 171.9L656.242 167.6H659.867L655.317 173.8L659.867 180H656.242L653.167 175.7L650.092 180H646.442ZM663.65 185.475V167.6H666.625L667 169.35C667.267 168.983 667.584 168.642 667.95 168.325C668.334 168.008 668.784 167.758 669.3 167.575C669.817 167.392 670.417 167.3 671.1 167.3C672.267 167.3 673.3 167.583 674.2 168.15C675.117 168.717 675.842 169.492 676.375 170.475C676.909 171.442 677.175 172.558 677.175 173.825C677.175 175.058 676.909 176.167 676.375 177.15C675.842 178.133 675.117 178.908 674.2 179.475C673.3 180.025 672.267 180.3 671.1 180.3C670.167 180.3 669.359 180.133 668.675 179.8C668.009 179.45 667.459 178.975 667.025 178.375V185.475H663.65ZM670.325 177.375C670.992 177.375 671.584 177.225 672.1 176.925C672.617 176.608 673.017 176.183 673.3 175.65C673.6 175.117 673.75 174.508 673.75 173.825C673.75 173.125 673.6 172.508 673.3 171.975C673.017 171.425 672.617 171 672.1 170.7C671.584 170.383 670.992 170.225 670.325 170.225C669.659 170.225 669.067 170.383 668.55 170.7C668.05 171 667.65 171.425 667.35 171.975C667.067 172.508 666.925 173.117 666.925 173.8C666.925 174.5 667.067 175.117 667.35 175.65C667.65 176.183 668.05 176.608 668.55 176.925C669.067 177.225 669.659 177.375 670.325 177.375ZM681.733 180V162.025H685.108V180H681.733ZM695.976 180.3C694.793 180.3 693.718 180.025 692.751 179.475C691.785 178.925 691.018 178.158 690.451 177.175C689.901 176.192 689.626 175.067 689.626 173.8C689.626 172.517 689.901 171.392 690.451 170.425C691.018 169.442 691.785 168.675 692.751 168.125C693.718 167.575 694.801 167.3 696.001 167.3C697.201 167.3 698.276 167.575 699.226 168.125C700.193 168.675 700.96 169.442 701.526 170.425C702.093 171.392 702.376 172.517 702.376 173.8C702.376 175.083 702.093 176.217 701.526 177.2C700.96 178.167 700.193 178.925 699.226 179.475C698.26 180.025 697.176 180.3 695.976 180.3ZM695.976 177.4C696.526 177.4 697.018 177.267 697.451 177C697.901 176.733 698.26 176.333 698.526 175.8C698.793 175.25 698.926 174.583 698.926 173.8C698.926 173 698.793 172.333 698.526 171.8C698.26 171.267 697.901 170.867 697.451 170.6C697.018 170.333 696.535 170.2 696.001 170.2C695.485 170.2 695.001 170.333 694.551 170.6C694.101 170.867 693.735 171.267 693.451 171.8C693.185 172.333 693.051 173 693.051 173.8C693.051 174.583 693.185 175.25 693.451 175.8C693.735 176.333 694.093 176.733 694.526 177C694.976 177.267 695.46 177.4 695.976 177.4ZM706.888 180V167.6H709.888L710.213 169.95C710.53 169.4 710.905 168.925 711.338 168.525C711.771 168.125 712.271 167.825 712.838 167.625C713.421 167.408 714.055 167.3 714.738 167.3V170.875H713.813C713.296 170.875 712.813 170.933 712.363 171.05C711.93 171.167 711.555 171.358 711.238 171.625C710.938 171.892 710.696 172.258 710.513 172.725C710.346 173.175 710.263 173.742 710.263 174.425V180H706.888ZM724.504 180.3C723.237 180.3 722.112 180.033 721.129 179.5C720.162 178.967 719.404 178.217 718.854 177.25C718.304 176.283 718.029 175.175 718.029 173.925C718.029 172.625 718.295 171.483 718.829 170.5C719.379 169.5 720.137 168.717 721.104 168.15C722.07 167.583 723.204 167.3 724.504 167.3C725.737 167.3 726.82 167.567 727.754 168.1C728.704 168.633 729.445 169.367 729.979 170.3C730.512 171.217 730.779 172.258 730.779 173.425C730.779 173.592 730.77 173.783 730.754 174C730.754 174.2 730.745 174.408 730.729 174.625H720.429V172.55H727.354C727.304 171.783 727.012 171.175 726.479 170.725C725.945 170.258 725.287 170.025 724.504 170.025C723.937 170.025 723.412 170.158 722.929 170.425C722.445 170.675 722.062 171.058 721.779 171.575C721.495 172.092 721.354 172.742 721.354 173.525V174.25C721.354 174.917 721.487 175.5 721.754 176C722.02 176.5 722.387 176.883 722.854 177.15C723.337 177.417 723.879 177.55 724.479 177.55C725.079 177.55 725.587 177.417 726.004 177.15C726.437 176.867 726.762 176.508 726.979 176.075H730.404C730.17 176.858 729.779 177.575 729.229 178.225C728.679 178.858 727.995 179.367 727.179 179.75C726.379 180.117 725.487 180.3 724.504 180.3Z"
    fill="#294C80" />
  <line x1="269.645" y1="1" x2="269.645" y2="232.889" stroke="#294C80" stroke-width="3.29" />
</svg>