<svg xmlns="http://www.w3.org/2000/svg" viewBox="0 0 48 48" width="48px" height="48px">
  <path fill="#FF9900"
    d="M24,4C12.954,4,4,12.954,4,24s8.954,20,20,20s20-8.954,20-20S35.046,4,24,4z M24,40c-8.822,0-16-7.178-16-16S15.178,8,24,8s16,7.178,16,16S32.822,40,24,40z" />
  <path fill="#FF9900"
    d="M24,12c-6.627,0-12,5.373-12,12s5.373,12,12,12s12-5.373,12-12S30.627,12,24,12z M24,32c-4.411,0-8-3.589-8-8s3.589-8,8-8s8,3.589,8,8S28.411,32,24,32z" />
  <path fill="#FF9900" d="M24,20c-2.209,0-4,1.791-4,4s1.791,4,4,4s4-1.791,4-4S26.209,20,24,20z" />
</svg> 